<svg
    xmlns="http://www.w3.org/2000/svg"
    viewBox="0 0 100 100">
    <view id="no-padding" viewBox="7 7 93 93" />
    <path
        id="whale-body"
        fill="#287"
        stroke="#287"
        stroke-width="6"
        d="
        M 60 30
        v 50  a 10 10 90 0 1 -10  10
        h -30 a 10 10 90 0 1 -10 -10
        v -30 a 10 10 90 0 1  10 -10
        h 30  a 10 10 90 0 0  10 -10  z
        " />
    <path
        id="whale-mouth"
        fill="none"
        stroke="#dee"
        stroke-width="6"
        d="
        M 12 75
        h 28
        a 4 4 90 0 0  4 -4
        v -2
        " />
    <path
        id="whale-tail"
        fill="none"
        stroke="#287"
        stroke-width="6"
        d="
        M 60 20
              a 10 10 90 0 1  10 -10
        h 10  a 10 10 90 0 1  10  10
        v 10  a 10 10 90 0 1 -10  10
        h -10 a 10 10 90 0 0 -10  10
        z
        " />
    <circle
        id="whale-eye"
        fill="#dee"
        cx="20"
        cy="55"
        r="3" />
</svg>