<svg
    xmlns="http://www.w3.org/2000/svg"
    viewBox="0 0 100 100">
    <path
        id="whale-body"
        fill="#dee"
        stroke="#287"
        stroke-width="2"
        d="
        M 60 30
        v 50  a 10 10 90 0 1 -10  10
        h -30 a 10 10 90 0 1 -10 -10
        v -30 a 10 10 90 0 1  10 -10
        h 30  a 10 10 90 0 0  10 -10  z
        " />
    <path
        id="whale-mouth"
        fill="none"
        stroke="#287"
        stroke-width="2"
        d="
        M 10 80
        h 30  a 5 5 90 0 0  5 -5
        " />
    <path
        id="whale-tail"
        fill="#ddd"
        stroke="#287"
        stroke-width="2"
        d="
        M 60 40
        v -20 a 10 10 90 0 1  10 -10
        h 10  a 10 10 90 0 1  10  10
        v 20  a 10 10 90 0 1 -10  10
        h -10 a 10 10 90 0 0 -10  10
        z
        " />
    <circle
        id="whale-eye"
        fill="#287"
        cx="20"
        cy="60"
        r="3" />
    <path
        id="whale-spray"
        fill="none"
        stroke="#287"
        stroke-width="2"
        d="
        M 40 30
        v -10
        a 5 5 90 0 1 5 -5
        M 35 25
        v -15
        M 30 30
        v -10
        a 5 5 90 0 0 -5 -5
        " />
</svg>